<svg xmlns="http://www.w3.org/2000/svg" width="168" height="92" viewBox="0 0 168 92"><ellipse cx="163.706" cy="88.381" rx="3.559" ry="3.535" transform="rotate(-180 163.706 88.3812)"/><ellipse cx="128.118" cy="88.381" rx="3.559" ry="3.535" transform="rotate(-180 128.118 88.3812)"/><ellipse cx="92.53" cy="88.381" rx="3.559" ry="3.535" transform="rotate(-180 92.53 88.3812)"/><ellipse cx="56.941" cy="88.381" rx="3.559" ry="3.535" transform="rotate(-180 56.9412 88.3812)"/><ellipse cx="21.353" cy="88.381" rx="3.559" ry="3.535" transform="rotate(-180 21.3533 88.3812)"/><ellipse cx="145.912" cy="67.17" rx="3.559" ry="3.535" transform="rotate(-180 145.912 67.1698)"/><ellipse cx="110.324" cy="67.17" rx="3.559" ry="3.535" transform="rotate(-180 110.324 67.1698)"/><ellipse cx="74.735" cy="67.17" rx="3.559" ry="3.535" transform="rotate(-180 74.7351 67.1698)"/><ellipse cx="39.147" cy="67.17" rx="3.559" ry="3.535" transform="rotate(-180 39.1472 67.1698)"/><ellipse cx="3.558" cy="67.17" rx="3.559" ry="3.535" transform="rotate(-180 3.55836 67.1698)"/><ellipse cx="163.706" cy="45.958" rx="3.559" ry="3.535" transform="rotate(-180 163.706 45.958)"/><ellipse cx="128.118" cy="45.958" rx="3.559" ry="3.535" transform="rotate(-180 128.118 45.958)"/><ellipse cx="92.53" cy="45.958" rx="3.559" ry="3.535" transform="rotate(-180 92.53 45.958)"/><ellipse cx="56.941" cy="45.958" rx="3.559" ry="3.535" transform="rotate(-180 56.9412 45.958)"/><ellipse cx="21.353" cy="45.958" rx="3.559" ry="3.535" transform="rotate(-180 21.3533 45.9579)"/><ellipse cx="145.912" cy="24.747" rx="3.559" ry="3.535" transform="rotate(-180 145.912 24.7466)"/><ellipse cx="110.324" cy="24.747" rx="3.559" ry="3.535" transform="rotate(-180 110.324 24.7466)"/><ellipse cx="74.735" cy="24.747" rx="3.559" ry="3.535" transform="rotate(-180 74.7351 24.7466)"/><ellipse cx="39.147" cy="24.747" rx="3.559" ry="3.535" transform="rotate(-180 39.1472 24.7466)"/><ellipse cx="3.558" cy="24.747" rx="3.559" ry="3.535" transform="rotate(-180 3.55836 24.7466)"/><ellipse cx="163.706" cy="3.535" rx="3.559" ry="3.535" transform="rotate(-180 163.706 3.53518)"/><ellipse cx="128.118" cy="3.535" rx="3.559" ry="3.535" transform="rotate(-180 128.118 3.53518)"/><ellipse cx="92.53" cy="3.535" rx="3.559" ry="3.535" transform="rotate(-180 92.53 3.53518)"/><ellipse cx="56.941" cy="3.535" rx="3.559" ry="3.535" transform="rotate(-180 56.9412 3.53518)"/><ellipse cx="21.353" cy="3.535" rx="3.559" ry="3.535" transform="rotate(-180 21.3533 3.53518)"/></svg>