<svg xmlns="http://www.w3.org/2000/svg" width="400" height="220" fill="none" viewBox="0 0 400 220"><rect width="400" height="220" fill="#1B1F23"/><rect width="170" height="170" x="115" y="25" fill="#1B1F23" stroke="#79B8FF"/><rect width="20.096" height="15.79" x="225.442" y="158.563" fill="#044289"/><rect width="28.709" height="15.79" x="262.763" y="158.563" fill="#044289"/><rect width="43.063" height="19.378" x="108.813" y="45.165" fill="#005CC5"/><rect width="7.964" height="7.964" stroke="#C8E1FF" stroke-linejoin="round" transform="matrix(0.706277 0.707935 -0.706277 0.707935 262.59 37)"/><path stroke="#2188FF" stroke-linecap="round" stroke-linejoin="round" stroke-width="2" d="M179 157C179 159.6 183 159.6 183 162.2C183 164.8 179 164.8 179 167.4C179 170 183 170 183 172.6C183 175.2 179 175.2 179 177.8C179 180.4 183 180.4 183 183"/><rect width="100.873" height="65.036" x="130.982" y="78.809" fill="#005CC5"/><rect width="82.954" height="5.309" x="139.609" y="93.409" fill="#C8E1FF"/><rect width="82.954" height="5.309" x="139.609" y="104.027" fill="#C8E1FF"/><rect width="82.954" height="5.309" x="139.609" y="114.646" fill="#C8E1FF"/><rect width="82.954" height="5.309" x="139.609" y="125.264" fill="#C8E1FF"/><rect width="100.873" height="65.036" x="168.146" y="68.191" fill="#2188FF"/><rect width="47.782" height="65.036" x="221.236" y="68.191" fill="#C8E1FF"/><rect width="29.2" height="2.655" x="230.527" y="89.427" fill="#005CC5"/><rect width="29.2" height="2.655" x="230.527" y="97.391" fill="#005CC5"/><rect width="29.2" height="2.655" x="230.527" y="105.354" fill="#005CC5"/><rect width="29.2" height="2.655" x="230.527" y="113.318" fill="#005CC5"/><rect width="100.873" height="65.036" x="146.909" y="73.5" fill="#044289"/><path fill="#2188FF" fill-rule="evenodd" d="M197.341 85.4456C185.608 85.4456 176.109 95.0372 176.109 106.875C176.109 116.361 182.187 124.371 190.626 127.21C191.686 127.397 192.087 126.754 192.087 126.191C192.087 125.684 192.062 123.996 192.062 122.201C186.727 123.194 185.346 120.888 184.924 119.681C184.683 119.063 183.648 117.162 182.749 116.655C182.005 116.254 180.945 115.261 182.723 115.235C184.396 115.21 185.591 116.787 185.988 117.431C187.897 120.67 190.951 119.762 192.172 119.2C192.357 117.806 192.915 116.868 193.523 116.335C188.797 115.798 183.864 113.952 183.864 105.754C183.864 103.422 184.687 101.496 186.039 99.9951C185.828 99.4579 185.084 97.2625 186.25 94.3168C186.25 94.3168 188.028 93.7541 192.091 96.5122C193.789 96.0305 195.597 95.7875 197.4 95.7875C199.204 95.7875 201.012 96.0305 202.709 96.5122C206.768 93.7242 208.551 94.3168 208.551 94.3168C209.721 97.2625 208.977 99.4622 208.762 99.9951C210.113 101.496 210.937 103.397 210.937 105.754C210.937 113.978 205.974 115.802 201.248 116.335C202.017 117.004 202.68 118.292 202.68 120.3C202.68 123.164 202.655 125.471 202.655 126.195C202.655 126.758 203.052 127.427 204.116 127.214C212.504 124.375 218.582 116.339 218.582 106.88C218.573 95.0372 209.07 85.4456 197.341 85.4456Z" clip-rule="evenodd"/><path stroke="#2188FF" stroke-linecap="round" stroke-linejoin="round" stroke-width="2" d="M243.203 59.8721L240.555 54.9834L243.203 50.0947L248.499 50.0947L251.147 54.9834L248.499 59.8721H243.203Z"/><path stroke="#DBEDFF" stroke-linejoin="round" d="M134.086 105.453L127.627 105.453L130.857 99.7109L134.086 105.453Z"/></svg>